<?xml version="1.0" encoding="UTF-8"?>
<svg width="197px" height="197px" viewBox="0 0 197 197" version="1.1" xmlns="http://www.w3.org/2000/svg" xmlns:xlink="http://www.w3.org/1999/xlink">
    <!-- Generator: Sketch 59 (86127) - https://sketch.com -->
    <title>matplotlib2</title>
    <desc>Created with Sketch.</desc>
    <g id="Page-1" stroke="none" stroke-width="1" fill="none" fill-rule="evenodd">
        <g id="matplotlib" transform="translate(3.000000, 3.000000)">
            <g id="Group" transform="translate(0.559600, 0.217333)">
                <g fill="#FFFFFF" fill-rule="nonzero">
                    <circle id="Oval" stroke="#FFFFFF" stroke-width="6.06784" cx="94.8352827" cy="95.1765987" r="94.3043467"></circle>
                    <g id="D-link" opacity="0.05" transform="translate(3.792400, 5.056533)">
                        <path d="M90.3855333,179.00128 C139.815372,179.00128 179.886173,138.930479 179.886173,89.50064 C179.886173,40.0708014 139.815372,0 90.3855333,0 C66.6484878,0 43.8836498,9.42950464 27.0990239,26.2141305 C10.314398,42.9987564 0.884893333,65.7635944 0.884893333,89.50064 C0.884893333,138.930479 40.9556948,179.00128 90.3855333,179.00128 L90.3855333,179.00128 Z" id="D"></path>
                    </g>
                </g>
                <g transform="translate(3.784942, 4.563410)">
                    <g stroke-linecap="round" stroke-dasharray="0.5426321824391682,1.085264364878336" id="Shape" opacity="0.9" stroke="#858585" stroke-width="0.666666667">
                        <path d="M90.4009558,89.9962667 L179.897902,89.9962667 M90.4009558,89.9962667 L153.681625,26.7155977 M90.4009558,89.9962667 L90.4009558,0.499320542 M90.4009558,89.9962667 L27.1202867,26.7155977 M90.4009558,89.9962667 L0.904009558,89.9962667"></path>
                        <path d="M90.4009558,89.9962667 L27.1202867,153.276936 M90.4009558,89.9962667 L90.4009558,179.493213 M90.4009558,89.9962667 L153.681625,153.276936"></path>
                    </g>
                    <g stroke-linecap="square" stroke-dasharray="0.5426321824391682,1.085264364878336" transform="translate(20.611961, 20.270813)" id="Path" opacity="0.9" stroke="#818181" stroke-width="0.666666667">
                        <polyline points="79.7330994 69.7254536 79.4672142 67.3324871 78.5897932 65.0724633 77.2071904 63.0783245 75.3459942 61.4830135 73.2189129 60.4194729 70.8259464 59.8877026 68.4329799 59.9408796 66.0931905 60.579004 63.9661092 61.7488987 62.1846786 63.3973867 60.8552528 65.418114 60.0575973 67.7047264 59.8448891 70.0976929 60.2171284 72.4906593 61.174315 74.7240947 62.6366834 76.6650564 64.4978795 78.1806018 66.7047264 79.2441425 69.0976929 79.6961473 71.4906593 79.5632047 73.8038603 78.8453147 75.8777645 77.5956545 77.5794296 75.8939894 78.8290899 73.8200851 79.5469798 71.5068842 79.7065109 69.7786307"></polyline>
                        <polyline points="99.6213097 69.7254536 99.3554245 65.5776451 98.4780035 61.5096021 97.0422236 57.6010901 95.1012619 53.9318749 92.6551184 50.5551333 89.7303816 47.5506309 86.4599941 44.9981334 82.8439558 42.9242291 78.988621 41.3289181 74.9471665 40.3185545 70.7993579 39.8931382 66.6515493 40.0260808 62.5569178 40.7439707 58.5686404 42.0202195 54.8462481 43.8814157 51.3897409 46.2212051 48.305473 49.0129993 45.6466214 52.2036213 43.4397745 55.739894 41.7381095 59.5420518 40.5948033 63.5303293 40.0098559 67.6515493 40.0098559 71.8259464 40.5948033 75.9471665 41.7381095 79.9354439 43.4397745 83.7376018 45.6466214 87.2738744 48.305473 90.4644964 51.3897409 93.2562906 54.8462481 95.5960801 58.5686404 97.4572762 62.5569178 98.733525 66.6515493 99.451415 70.7993579 99.5843575 74.9471665 99.1589413 78.988621 98.1485777 82.8439558 96.5532667 86.4599941 94.4793624 89.7303816 91.9268648 92.6551184 88.9223625 95.1012619 85.5456209 97.0422236 81.8764056 98.4780035 77.9678937 99.3554245 73.8998507 99.6213097 69.7520421"></polyline>
                        <polyline points="119.50952 69.7254536 119.243635 64.5406929 118.445979 59.4091093 117.116553 54.3572911 115.255357 49.4915926 112.862391 44.8651908 110.01742 40.5046741 106.747032 36.4632196 103.077817 32.7940043 99.0363623 29.4970283 94.6758456 26.6520571 90.0494438 24.2590906 85.1837453 22.3978944 80.1319272 21.0684686 75.0003435 20.2708131 69.8155828 20.004928 64.6308221 20.2708131 59.4992384 21.0684686 54.4474203 22.3978944 49.5817218 24.2590906 44.95532 26.6520571 40.5416262 29.4970283 36.5533488 32.7674158 32.8309565 36.4898081 29.560569 40.5312626 26.7155977 44.8917793 24.3226312 49.5181812 22.4614351 54.3838797 21.1320093 59.4356978 20.3343538 64.5672814 20.0684686 69.7520421 20.3343538 74.9368028 21.1320093 80.0683865 22.4614351 85.1202046 24.3226312 89.9859031 26.7155977 94.612305 29.560569 98.9728217 32.8309565 103.014276 36.5001717 106.683491 40.5416262 109.953879 44.9021429 112.79885 49.5285448 115.191817 54.3942433 117.053013 59.4460614 118.382439 64.5776451 119.180094 69.7624058 119.445979 74.9471665 119.180094 80.0787501 118.382439 85.1305682 117.053013 89.9962667 115.191817 94.6226686 112.79885 99.0363623 109.953879 103.077817 106.683491 106.747032 103.014276 110.01742 98.9728217 112.862391 94.612305 115.255357 89.9859031 117.116553 85.1202046 118.445979 80.0683865 119.243635 74.9368028 119.50952 69.7520421"></polyline>
                        <polyline points="139.39773 69.7254536 139.025491 62.4402001 137.882185 55.2613007 136.020989 48.2153439 133.415314 41.4086837 130.118338 34.9210857 126.130061 28.8057269 121.556836 23.1423729 116.398664 17.9842007 110.73531 13.4109759 104.619951 9.42269843 98.1323528 6.1257224 91.3256926 3.52004779 84.2797357 1.65885164 77.1008363 0.515545435 69.8155828 0.143306205 62.5303293 0.515545435 55.3514299 1.65885164 48.305473 3.52004779 41.4988128 6.1257224 35.0112148 9.42269843 28.8958561 13.4109759 23.2325021 17.9842007 18.0743299 23.1423729 13.5011051 28.8057269 9.5128276 34.9210857 6.21585157 41.4086837 3.61017696 48.2153439 1.74898081 55.2613007 0.605674607 62.4402001 0.233435378 69.7254536 0.605674607 77.0107071 1.74898081 84.1896065 3.61017696 91.2355634 6.21585157 98.0422236 9.5128276 104.529822 13.5011051 110.64518 18.0743299 116.308534 23.2325021 121.466707 28.8958561 126.039931 35.0112148 130.028209 41.4988128 133.325185 48.305473 135.930859 55.3514299 137.792056 62.5303293 138.935362 69.8155828 139.307601 77.1008363 138.935362 84.2797357 137.792056 91.3256926 135.930859 98.1323528 133.325185 104.619951 130.028209 110.73531 126.039931 116.398664 121.466707 121.556836 116.308534 126.103472 110.671769 130.091749 104.55641 133.388726 98.0688121 135.9944 91.2621519 137.855596 84.2161951 138.998902 77.0372956 139.371142 69.7520421"></polyline>
                    </g>
                    <g transform="translate(20.611961, 12.294258)" fill-rule="nonzero" stroke="#000000" stroke-width="1.22307175">
                        <g id="E-link" opacity="0.56" transform="translate(69.788994, 70.788994)" fill="#004CFF">
                            <polygon id="E" points="0 6.91301426 18.9576122 0.877421041 18.9842007 0.930598074 19.0639663 1.19648324 19.0905548 1.32942582 19.1703203 1.59531098 19.1969088 1.72825357 19.2766744 1.99413873 19.3830285 2.41955499 19.462794 2.79179422 19.5425596 3.21721048 19.5957366 3.53627268 19.6223251 3.66921526 19.6489136 3.93510043 19.6489136 4.06804301 19.7020907 4.38710521 19.7020907 4.52004779 19.7286792 4.78593295 19.7552677 4.91887553 19.7818562 5.1847607 19.8084447 5.37088031 19.8084447 5.55699993 19.8350332 5.82288509 19.8350332 5.95582767 19.8350332 6.22171284 19.8350332 6.40783245 19.8350332 6.59395207 19.8350332 6.78007168 19.8350332 7.04595685 0.159531098 7.04595685"></polygon>
                        </g>
                        <g id="F-link" opacity="0.56" transform="translate(69.788994, 21.270813)" fill="#CEFF29">
                            <polygon id="F" points="0 56.4311954 21.3239902 0.70166505 22.3875308 1.1004928 23.4510715 1.52590906 23.6106026 1.60567461 24.4614351 1.97791384 24.6209662 2.05767939 25.6313298 2.53627268 26.8012245 3.12122004 27.59888 3.5466363 27.9179422 3.73275592 28.5826551 4.07840663 28.9017173 4.26452625 29.6993728 4.71653103 29.8589039 4.82288509 30.8160905 5.40783245 31.7732771 5.99277981 31.9328082 6.09913388 32.7304637 6.63090421 32.8899948 6.73725827 33.8205929 7.37538267 34.7511909 8.01350706 34.910722 8.11986113 35.6552005 8.65163145 35.9210857 8.86433958 36.506033 9.31634436 36.7719182 9.58222953 37.0378033 9.84811469 0.212708131 56.0323677"></polygon>
                        </g>
                        <g id="G-link" opacity="0.56" transform="translate(18.611961, 0.000000)" fill="#FF6800">
                            <polygon id="G" points="51.1770328 77.7020085 0.206846861 16.6281864 1.37674158 15.6709998 2.83910998 14.5011051 3.74311954 13.8363922 4.00900471 13.623684 4.91301426 12.9589711 5.52455014 12.5335548 6.13608602 12.1081386 6.7476219 11.6827223 7.35915777 11.2573061 8.28975585 10.6457702 8.60881804 10.4330621 9.56600463 9.84811469 9.88506683 9.66199508 11.2144927 8.86433958 12.5439185 8.11986113 14.1924065 7.21585157 15.2027701 6.68408124 15.5484208 6.52455014 16.8778466 5.85983723 18.2072725 5.22171284 19.935526 4.47723438 20.9990667 4.05181812 21.3447174 3.91887553 22.7273203 3.38710521 24.1365116 2.85533488 25.9179422 2.243799 26.9814829 1.89814829 27.3271336 1.79179422 28.7629135 1.36637796 30.1986934 0.967550214 32.0067125 0.488956918 33.0702531 0.223071754 33.4424924 0.143306205 50.9909132 76.9309416"></polygon>
                        </g>
                        <g id="H-link" opacity="0.56" transform="translate(0.000000, 46.859330)" fill="#FFC400">
                            <polygon id="H" points="69.7889943 30.842679 1.29697603 43.2595162 1.21721048 42.8340999 1.0842679 41.9832674 0.95132532 41.1058464 0.898148288 40.6804301 0.791794222 39.8030091 0.738617189 39.3775928 0.632263124 38.5001717 0.579086091 38.0747555 0.446143509 36.7453297 0.339789443 35.4159038 0.260023894 34.086478 0.233435378 33.6610618 0.206846861 32.7836407 0.206846861 32.3582245 0.180258345 31.4808034 0.180258345 31.0553872 0.180258345 30.1779661 0.180258345 29.3005451 0.180258345 28.8751288 0.206846861 27.9977078 0.233435378 27.5722915 0.28661241 26.6948705 0.339789443 25.8174494 0.339789443 25.3920332 0.419554992 24.5146121 0.472732025 24.0891959 0.552497574 23.2117748 0.65885164 22.3343538 0.712028673 21.9089375 0.818382738 21.0315165 0.871559771 20.6061002 1.00450235 19.7286792 1.0842679 19.3032629 1.35015307 17.9738371 1.61603823 16.6975883 1.88192339 15.4213395 1.98827746 14.9959232 2.20098559 14.1450907 2.30733966 13.7196745 2.52004779 12.8688419 2.62640185 12.4434257 2.89228702 11.5925932 3.15817218 10.7417606 3.29111476 10.3163444 3.55699993 9.51868887 3.68994251 9.09327261 3.95582767 8.29561712 4.22171284 7.49796162 4.38124394 7.09913388 4.6471291 6.30147839 4.8066602 5.90265064 5.1257224 5.10499515 5.28525349 4.7061674 5.81702382 3.48309565 6.34879415 2.28661241 6.88056448 1.09012917 7.06668409 0.691301426 69.1508699 30.5767939"></polygon>
                        </g>
                        <g id="I-link" opacity="0.6" transform="translate(33.565071, 77.106698)" fill="#29FFCE">
                            <polygon id="I" points="36.223923 0.595310984 3.36051669 22.9828418 3.22757411 22.7701337 2.90851191 22.2915404 2.77556933 22.0788322 2.50968416 21.653416 2.35015307 21.3875308 2.0842679 20.9621145 1.9247368 20.6962294 1.71202867 20.3239902 1.52590906 20.004928 1.31320093 19.6326887 1.12708131 19.3136265 0.940961697 18.9945643 0.728253566 18.5957366 0.568722468 18.2500859 0.382602853 17.8512581 35.8516837 0.754842082"></polygon>
                        </g>
                        <g id="J-link" opacity="0.56" transform="translate(58.494736, 77.106698)" fill="#7DFF7A">
                            <polygon id="J" points="11.2942582 0.595310984 19.6164638 49.6245352 18.6592772 49.7840663 18.4731576 49.7840663 17.6755021 49.8904204 17.4893825 49.9170089 16.691727 49.9967745 16.5056074 49.9967745 15.7079519 50.07654 15.5218323 50.1031285 14.7241768 50.1563056 14.5380572 50.1563056 13.7404017 50.2094826 13.341574 50.2094826 12.7566266 50.2360711 12.570507 50.2360711 11.5867319 50.2360711 11.0017845 50.2360711 10.8156649 50.2360711 10.0180094 50.2360711 9.8318898 50.2360711 9.03423431 50.2094826 8.84811469 50.2094826 8.0504592 50.1563056 7.86433958 50.1563056 7.06668409 50.1031285 6.66785635 50.07654 6.2690286 50.0499515 5.68408124 50.0499515 5.09913388 49.9701859 4.70030613 49.9170089 4.11535877 49.8372434 3.71653103 49.8372434 3.13158367 49.7574778 2.75934444 49.7043008 2.17439707 49.5979467 1.80215785 49.5181812 1.21721048 49.4118271 0.844971255 49.3320615 0.0473157628 49.1725304 11.0017845 1.18025834"></polygon>
                        </g>
                        <g id="K-link" opacity="0.56" transform="translate(69.788994, 77.106698)" fill="#FF6800">
                            <polygon id="K" points="0 0.595310984 62.6425446 49.6511237 61.7119466 50.8210185 60.6484059 52.1504443 59.6646308 53.2937505 58.5479131 54.5434108 57.4843725 55.6069514 56.3144777 56.8034347 55.2509371 57.8669753 54.0278653 59.03687 52.9111476 60.0472337 51.6348988 61.1639513 50.4915926 62.1211379 49.6141716 62.8390279 0.531770328 1.20684686"></polygon>
                        </g>
                    </g>
                </g>
                <g transform="translate(3.792400, 5.056533)">
                    <g id="D-link" stroke="#11557C" stroke-width="2.65468">
                        <path d="M90.3855333,179.00128 C139.815372,179.00128 179.886173,138.930479 179.886173,89.50064 C179.886173,40.0708014 139.815372,0 90.3855333,0 C66.6484878,0 43.8836498,9.42950464 27.0990239,26.2141305 C10.314398,42.9987564 0.884893333,65.7635944 0.884893333,89.50064 C0.884893333,138.930479 40.9556948,179.00128 90.3855333,179.00128 L90.3855333,179.00128 Z" id="D"></path>
                    </g>
                    <g transform="translate(20.604503, 11.801134)" stroke="#000000" stroke-width="1.22307175">
                        <g id="E-link" opacity="0.6" transform="translate(69.788994, 70.788994)">
                            <polygon id="E" points="0 6.91301426 18.9576122 0.877421041 18.9842007 0.930598074 19.0639663 1.19648324 19.0905548 1.32942582 19.1703203 1.59531098 19.1969088 1.72825357 19.2766744 1.99413873 19.3830285 2.41955499 19.462794 2.79179422 19.5425596 3.21721048 19.5957366 3.53627268 19.6223251 3.66921526 19.6489136 3.93510043 19.6489136 4.06804301 19.7020907 4.38710521 19.7020907 4.52004779 19.7286792 4.78593295 19.7552677 4.91887553 19.7818562 5.1847607 19.8084447 5.37088031 19.8084447 5.55699993 19.8350332 5.82288509 19.8350332 5.95582767 19.8350332 6.22171284 19.8350332 6.40783245 19.8350332 6.59395207 19.8350332 6.78007168 19.8350332 7.04595685 0.159531098 7.04595685"></polygon>
                        </g>
                        <g id="F-link" opacity="0.6" transform="translate(69.788994, 21.270813)">
                            <polygon id="F" points="0 56.4311954 21.3239902 0.70166505 22.3875308 1.1004928 23.4510715 1.52590906 23.6106026 1.60567461 24.4614351 1.97791384 24.6209662 2.05767939 25.6313298 2.53627268 26.8012245 3.12122004 27.59888 3.5466363 27.9179422 3.73275592 28.5826551 4.07840663 28.9017173 4.26452625 29.6993728 4.71653103 29.8589039 4.82288509 30.8160905 5.40783245 31.7732771 5.99277981 31.9328082 6.09913388 32.7304637 6.63090421 32.8899948 6.73725827 33.8205929 7.37538267 34.7511909 8.01350706 34.910722 8.11986113 35.6552005 8.65163145 35.9210857 8.86433958 36.506033 9.31634436 36.7719182 9.58222953 37.0378033 9.84811469 0.212708131 56.0323677"></polygon>
                        </g>
                        <g id="G-link" opacity="0.6" transform="translate(18.611961, 0.000000)">
                            <polygon id="G" points="51.1770328 77.7020085 0.206846861 16.6281864 1.37674158 15.6709998 2.83910998 14.5011051 3.74311954 13.8363922 4.00900471 13.623684 4.91301426 12.9589711 5.52455014 12.5335548 6.13608602 12.1081386 6.7476219 11.6827223 7.35915777 11.2573061 8.28975585 10.6457702 8.60881804 10.4330621 9.56600463 9.84811469 9.88506683 9.66199508 11.2144927 8.86433958 12.5439185 8.11986113 14.1924065 7.21585157 15.2027701 6.68408124 15.5484208 6.52455014 16.8778466 5.85983723 18.2072725 5.22171284 19.935526 4.47723438 20.9990667 4.05181812 21.3447174 3.91887553 22.7273203 3.38710521 24.1365116 2.85533488 25.9179422 2.243799 26.9814829 1.89814829 27.3271336 1.79179422 28.7629135 1.36637796 30.1986934 0.967550214 32.0067125 0.488956918 33.0702531 0.223071754 33.4424924 0.143306205 50.9909132 76.9309416"></polygon>
                        </g>
                        <g id="H-link" opacity="0.6" transform="translate(0.000000, 46.859330)">
                            <polygon id="H" points="69.7889943 30.842679 1.29697603 43.2595162 1.21721048 42.8340999 1.0842679 41.9832674 0.95132532 41.1058464 0.898148288 40.6804301 0.791794222 39.8030091 0.738617189 39.3775928 0.632263124 38.5001717 0.579086091 38.0747555 0.446143509 36.7453297 0.339789443 35.4159038 0.260023894 34.086478 0.233435378 33.6610618 0.206846861 32.7836407 0.206846861 32.3582245 0.180258345 31.4808034 0.180258345 31.0553872 0.180258345 30.1779661 0.180258345 29.3005451 0.180258345 28.8751288 0.206846861 27.9977078 0.233435378 27.5722915 0.28661241 26.6948705 0.339789443 25.8174494 0.339789443 25.3920332 0.419554992 24.5146121 0.472732025 24.0891959 0.552497574 23.2117748 0.65885164 22.3343538 0.712028673 21.9089375 0.818382738 21.0315165 0.871559771 20.6061002 1.00450235 19.7286792 1.0842679 19.3032629 1.35015307 17.9738371 1.61603823 16.6975883 1.88192339 15.4213395 1.98827746 14.9959232 2.20098559 14.1450907 2.30733966 13.7196745 2.52004779 12.8688419 2.62640185 12.4434257 2.89228702 11.5925932 3.15817218 10.7417606 3.29111476 10.3163444 3.55699993 9.51868887 3.68994251 9.09327261 3.95582767 8.29561712 4.22171284 7.49796162 4.38124394 7.09913388 4.6471291 6.30147839 4.8066602 5.90265064 5.1257224 5.10499515 5.28525349 4.7061674 5.81702382 3.48309565 6.34879415 2.28661241 6.88056448 1.09012917 7.06668409 0.691301426 69.1508699 30.5767939"></polygon>
                        </g>
                        <g id="I-link" opacity="0.56" transform="translate(33.565071, 77.106698)">
                            <polygon id="I" points="36.223923 0.595310984 3.36051669 22.9828418 3.22757411 22.7701337 2.90851191 22.2915404 2.77556933 22.0788322 2.50968416 21.653416 2.35015307 21.3875308 2.0842679 20.9621145 1.9247368 20.6962294 1.71202867 20.3239902 1.52590906 20.004928 1.31320093 19.6326887 1.12708131 19.3136265 0.940961697 18.9945643 0.728253566 18.5957366 0.568722468 18.2500859 0.382602853 17.8512581 35.8516837 0.754842082"></polygon>
                        </g>
                        <g id="J-link" opacity="0.6" transform="translate(58.494736, 77.106698)">
                            <polygon id="J" points="11.2942582 0.595310984 19.6164638 49.6245352 18.6592772 49.7840663 18.4731576 49.7840663 17.6755021 49.8904204 17.4893825 49.9170089 16.691727 49.9967745 16.5056074 49.9967745 15.7079519 50.07654 15.5218323 50.1031285 14.7241768 50.1563056 14.5380572 50.1563056 13.7404017 50.2094826 13.341574 50.2094826 12.7566266 50.2360711 12.570507 50.2360711 11.5867319 50.2360711 11.0017845 50.2360711 10.8156649 50.2360711 10.0180094 50.2360711 9.8318898 50.2360711 9.03423431 50.2094826 8.84811469 50.2094826 8.0504592 50.1563056 7.86433958 50.1563056 7.06668409 50.1031285 6.66785635 50.07654 6.2690286 50.0499515 5.68408124 50.0499515 5.09913388 49.9701859 4.70030613 49.9170089 4.11535877 49.8372434 3.71653103 49.8372434 3.13158367 49.7574778 2.75934444 49.7043008 2.17439707 49.5979467 1.80215785 49.5181812 1.21721048 49.4118271 0.844971255 49.3320615 0.0473157628 49.1725304 11.0017845 1.18025834"></polygon>
                        </g>
                        <g id="K-link" opacity="0.6" transform="translate(69.788994, 77.106698)">
                            <polygon id="K" points="0 0.595310984 62.6425446 49.6511237 61.7119466 50.8210185 60.6484059 52.1504443 59.6646308 53.2937505 58.5479131 54.5434108 57.4843725 55.6069514 56.3144777 56.8034347 55.2509371 57.8669753 54.0278653 59.03687 52.9111476 60.0472337 51.6348988 61.1639513 50.4915926 62.1211379 49.6141716 62.8390279 0.531770328 1.20684686"></polygon>
                        </g>
                    </g>
                </g>
            </g>
        </g>
    </g>
</svg>