<?xml version="1.0" encoding="iso-8859-1"?>
<!-- Generator: Adobe Illustrator 19.0.0, SVG Export Plug-In . SVG Version: 6.00 Build 0)  -->
<svg version="1.1" id="Layer_1" xmlns="http://www.w3.org/2000/svg" xmlns:xlink="http://www.w3.org/1999/xlink" x="0px" y="0px"
	 viewBox="0 0 512 512" style="enable-background:new 0 0 512 512;" xml:space="preserve">
<g>
	<g>
		<g>
			<path d="M375.723,196.267h-0.085c-4.71,0-8.491,3.823-8.491,8.533c0,4.71,3.866,8.533,8.576,8.533
				c4.719,0,8.533-3.823,8.533-8.533C384.256,200.09,380.442,196.267,375.723,196.267z"/>
			<path d="M392.533,332.8c0-4.71-3.823-8.533-8.533-8.533c-4.71,0-8.533,3.823-8.533,8.533c0,89.404-80.384,162.133-179.2,162.133
				c-95.642,0-174.029-68.156-178.953-153.6h17.297c5.146,50.799,54.724,136.533,161.655,136.533
				c113.178,0,162.133-96.06,162.133-145.067c0-4.71-3.823-8.533-8.533-8.533H76.8c-4.71,0-8.533,3.823-8.533,8.533
				c0,4.71,3.823,8.533,8.533,8.533h95.147l-66.338,53.069c-3.686,2.944-4.284,8.311-1.34,11.998c1.69,2.108,4.164,3.2,6.673,3.2
				c1.869,0,3.755-0.614,5.325-1.869l71.467-57.173V435.2c0,4.71,3.823,8.533,8.533,8.533s8.533-3.823,8.533-8.533v-84.642
				l71.475,57.173c1.57,1.254,3.448,1.869,5.325,1.869c2.5,0,4.983-1.092,6.664-3.2c2.944-3.686,2.347-9.054-1.331-11.998
				l-66.338-53.069h120.226C335.65,386.27,291.217,460.8,196.267,460.8C95.01,460.8,51.2,376.039,51.2,332.8
				c0-4.71-3.823-8.533-8.533-8.533H8.533C3.823,324.267,0,328.09,0,332.8C0,431.616,88.047,512,196.267,512
				S392.533,431.616,392.533,332.8z"/>
			<path d="M76.8,307.2c4.71,0,8.533-3.823,8.533-8.533v-8.533C85.333,172.578,149.137,102.4,256,102.4
				c4.71,0,8.533-3.823,8.533-8.533c0-4.71-3.823-8.533-8.533-8.533c-115.797,0-187.733,78.473-187.733,204.8v8.533
				C68.267,303.377,72.09,307.2,76.8,307.2z"/>
			<path d="M435.456,221.867c0-4.71-3.814-8.533-8.533-8.533h-0.085c-4.71,0-8.491,3.823-8.491,8.533
				c0,4.71,3.866,8.533,8.576,8.533C431.642,230.4,435.456,226.577,435.456,221.867z"/>
			<path d="M324.267,85.333c-8.883,0-17.647,2.005-24.516,4.173c8.866-51.738,69.239-72.661,69.897-72.883
				c4.463-1.502,6.869-6.332,5.376-10.795c-1.502-4.471-6.332-6.869-10.786-5.393C360.866,1.562,281.6,28.826,281.6,102.4
				c0,2.953,1.536,5.692,4.045,7.253c2.509,1.553,5.649,1.698,8.294,0.384c0.154-0.077,15.565-7.637,30.328-7.637
				c94.106,0,170.667,84.215,170.667,187.733c0,93.406-68.975,174.583-164.011,193.024c-4.625,0.896-7.646,5.376-6.75,10.001
				c0.794,4.079,4.369,6.912,8.371,6.912c0.538,0,1.084-0.051,1.63-0.162C437.214,479.915,512,391.689,512,290.133
				C512,177.203,427.785,85.333,324.267,85.333z"/>
			<path d="M392.789,179.2c4.719,0,8.533-3.823,8.533-8.533s-3.814-8.533-8.533-8.533h-0.085c-4.71,0-8.491,3.823-8.491,8.533
				S388.079,179.2,392.789,179.2z"/>
		</g>
	</g>
</g>
<g>
</g>
<g>
</g>
<g>
</g>
<g>
</g>
<g>
</g>
<g>
</g>
<g>
</g>
<g>
</g>
<g>
</g>
<g>
</g>
<g>
</g>
<g>
</g>
<g>
</g>
<g>
</g>
<g>
</g>
</svg>
