<?xml version="1.0" encoding="iso-8859-1"?>
<!-- Generator: Adobe Illustrator 19.0.0, SVG Export Plug-In . SVG Version: 6.00 Build 0)  -->
<svg version="1.1" id="Layer_1" xmlns="http://www.w3.org/2000/svg" xmlns:xlink="http://www.w3.org/1999/xlink" x="0px" y="0px"
	 viewBox="0 0 256 256" style="enable-background:new 0 0 512 512;" xml:space="preserve">
<g>
	<g>
		<path d="M319.6,73.2c0.8-0.8,2-1.6,2.8-2.8c17.6-17.6,28-41.2,29.6-66c0-1.2-0.4-2.4-1.2-3.2c-0.8-0.8-2-1.2-3.2-1.2
			c-25.2,1.2-48.4,12-66.4,29.6c-10,10-17.6,21.6-22.4,34.4c-1.2,0-2,0-3.2,0C132.4,64,32,164.4,32,288s100.4,224,224,224
			s224-100.4,224-224C480,188.8,414.4,101.2,319.6,73.2z M287.2,35.2c15.2-15.2,35.2-24.4,56.4-26.8c-2.4,21.2-11.6,41.2-26.8,56.4
			c-15.2,15.2-35.2,24.4-56.4,26.8C262.4,70.4,272,50.4,287.2,35.2z M256,504c-119.2,0-216-96.8-216-216S136.8,72,256,72
			c0,0,0,0,0.4,0c-2,6.4-3.2,13.2-4,20c-4.4,0-8.4,0.4-12.8,0.4c-2.4,0-4,2-3.6,4.4c0,2.4,2,4,4.4,3.6c11.6-0.8,23.2-0.8,34.4,0.4
			h0.4c2,0,3.6-1.6,4-3.6c0-0.4,0-0.8,0-1.6c12-3.6,23.2-9.2,32.8-16.4c94.4,25.6,160,111.2,160,208.8C472,407.2,375.2,504,256,504z
			"/>
	</g>
</g>
<g>
	<g>
		<path d="M412.4,170c-10.8-14-23.2-26.8-37.2-37.6c-1.6-1.2-4.4-1.2-5.6,0.8c-1.2,1.6-1.2,4.4,0.8,5.6c13.2,10.4,25.2,22.4,35.6,36
			c0.8,1.2,2,1.6,3.2,1.6c0.8,0,1.6-0.4,2.4-0.8C413.2,174.4,413.6,171.6,412.4,170z"/>
	</g>
</g>
<g>
	<g>
		<path d="M214,471.2c-40.4-9.2-77.2-32.4-103.6-64.8c-1.2-1.6-4-2-5.6-0.4c-1.6,1.2-2,4-0.4,5.6c27.6,33.6,66,57.6,108,67.2
			c0.4,0,0.8,0,0.8,0c2,0,3.6-1.2,4-3.2C217.6,474,216,471.6,214,471.2z"/>
	</g>
</g>
<g>
	<g>
		<path d="M428.8,195.6c-1.2-2-3.6-2.8-5.6-1.6s-2.8,3.6-1.6,5.6c14.8,26.8,22.4,57.2,22.4,88.4c0,2.4,1.6,4,4,4c2.4,0,4-1.6,4-4
			C452,255.6,444,223.6,428.8,195.6z"/>
	</g>
</g>
<g>
	<g>
		<path d="M164,184c-2.4,0-4,1.6-4,4c0,2.4-1.6,4-4,4c-2.4,0-4-1.6-4-4c0-2.4,1.6-4,4-4c2.4,0,4-1.6,4-4c0-2.4-1.6-4-4-4
			c-6.8,0-12,5.2-12,12s5.2,12,12,12s12-5.2,12-12C168,185.6,166.4,184,164,184z"/>
	</g>
</g>
<g>
	<g>
		<path d="M252.4,144.4c-2.4,0-4,1.6-4,4c0,2.4-1.6,4-4,4c-2.4,0-4-1.6-4-4c0-2.4,1.6-4,4-4c2.4,0,4-1.6,4-4c0-2.4-1.6-4-4-4
			c-6.8,0-12,5.2-12,12c0,6.8,5.2,12,12,12c6.8,0,12-5.2,12-12C256.4,146,254.8,144.4,252.4,144.4z"/>
	</g>
</g>
<g>
	<g>
		<path d="M232.4,264c-2.4,0-4,1.6-4,4c0,2.4-1.6,4-4,4c-2.4,0-4-1.6-4-4c0-2.4,1.6-4,4-4c2.4,0,4-1.6,4-4c0-2.4-1.6-4-4-4
			c-6.8,0-12,5.2-12,12s5.2,12,12,12c6.8,0,12-5.2,12-12C236.4,266,234.4,264,232.4,264z"/>
	</g>
</g>
<g>
	<g>
		<path d="M282.8,205.2c-1.6-1.6-4-1.6-5.6,0c-0.8,0.4-1.2,1.6-1.2,2.8s0.4,2,1.2,2.8s2,1.2,2.8,1.2s2-0.4,2.8-1.2s1.2-1.6,1.2-2.8
			S283.6,206,282.8,205.2z"/>
	</g>
</g>
<g>
	<g>
		<path d="M294.8,409.2c-1.6-1.6-4-1.6-5.6,0c-0.8,0.8-1.2,1.6-1.2,2.8s0.4,2,1.2,2.8c0.8,0.8,1.6,1.2,2.8,1.2s2-0.4,2.8-1.2
			s1.2-1.6,1.2-2.8C296,410.8,295.6,410,294.8,409.2z"/>
	</g>
</g>
<g>
	<g>
		<path d="M142.8,257.2c-1.6-1.6-4-1.6-5.6,0c-0.8,0.4-1.2,1.6-1.2,2.8s0.4,2,1.2,2.8s1.6,1.2,2.8,1.2s2-0.4,2.8-1.2
			c0.8-0.8,1.2-1.6,1.2-2.8C144,258.8,143.6,258,142.8,257.2z"/>
	</g>
</g>
<g>
	<g>
		<path d="M330.8,337.2c-1.6-1.6-4-1.6-5.6,0c-0.8,0.4-1.2,1.6-1.2,2.8s0.4,2,1.2,2.8s1.6,1.2,2.8,1.2s2-0.4,2.8-1.2s1.2-2,1.2-2.8
			C332,338.8,331.6,338,330.8,337.2z"/>
	</g>
</g>
<g>
	<g>
		<path d="M378.8,361.2c-1.6-1.6-4-1.6-5.6,0c-0.8,0.4-1.2,1.6-1.2,2.8s0.4,2,1.2,2.8s2,1.2,2.8,1.2s2-0.4,2.8-1.2s1.2-2,1.2-2.8
			C380,362.8,379.6,362,378.8,361.2z"/>
	</g>
</g>
<g>
</g>
<g>
</g>
<g>
</g>
<g>
</g>
<g>
</g>
<g>
</g>
<g>
</g>
<g>
</g>
<g>
</g>
<g>
</g>
<g>
</g>
<g>
</g>
<g>
</g>
<g>
</g>
<g>
</g>
</svg>
